<?xml version="1.0" encoding="utf-8"?>
<!-- Uploaded to: SVG Repo, www.svgrepo.com, Generator: SVG Repo Mixer Tools -->
<svg width="800px" height="800px" viewBox="0 0 1024 1024" class="icon"  version="1.1" xmlns="http://www.w3.org/2000/svg"><path d="M976.01536 451.58912V277.27872c0-1.00864-0.256-1.9456-0.29696-2.93888v-6.81472h-0.68608c-4.77184-33.3056-33.13664-58.98752-67.75808-58.98752H116.72576c-34.62144 0-62.98624 25.68704-67.7632 58.98752h-0.97792v247.36256h0.29696v49.31072c-0.04096 0.9984-0.29696 1.93536-0.29696 2.93888v309.10976c0 1.00864 0.256 1.9456 0.29696 2.93888v6.81472h0.68608c4.77184 33.3056 33.13664 58.98752 67.75808 58.98752h790.54336c34.62144 0 62.98624-25.68704 67.7632-58.98752h0.98304V503.83872h-0.29696v-49.31072c0.04608-0.99328 0.29696-1.93024 0.29696-2.93888z" fill="#C4BCB1" /><path d="M976.01536 451.58912V277.27872c0-1.00864-0.256-1.9456-0.29696-2.93888v-6.81472h-0.68608c-4.77184-33.3056-33.13664-58.98752-67.75808-58.98752H116.72576c-34.62144 0-62.98624 25.68704-67.7632 58.98752h-0.97792v247.36256h0.29696v49.31072c-0.04096 0.9984-0.29696 1.93536-0.29696 2.93888v82.816c0 1.00864 0.256 1.9456 0.29696 2.93888v6.81472h0.68608c4.77184 33.3056 33.13664 58.98752 67.75808 58.98752h790.54336c34.62144 0 62.98624-25.68704 67.7632-58.98752h0.98304V503.83872h-0.29696v-49.31072c0.04608-0.99328 0.29696-1.93024 0.29696-2.93888z" fill="#928B82" /><path d="M566.4768 709.17632c0 30.08512-24.39168 54.4768-54.4768 54.4768s-54.4768-24.39168-54.4768-54.4768 24.39168-54.4768 54.4768-54.4768 54.4768 24.39168 54.4768 54.4768z" fill="#FCE38A" /><path d="M239.61088 776.22784a16.76288 16.76288 0 0 1-33.52576 0V658.8928a16.76288 16.76288 0 0 1 33.52576 0v117.33504zM817.91488 776.22784a16.76288 16.76288 0 0 1-33.52576 0V658.8928a16.76288 16.76288 0 0 1 33.52576 0v117.33504z" fill="#FCE38A" /><path d="M682.6752 168.41216V104.2944c0-0.36864-0.09216-0.7168-0.10752-1.08032v-2.5088h-0.25088c-1.75616-12.24704-12.1856-21.69856-24.92416-21.69856H366.61248c-12.73344 0-23.168 9.4464-24.92416 21.69856h-0.36352V191.6928h0.10752v18.13504c-0.01536 0.36352-0.10752 0.71168-0.10752 1.08032v30.464c0 0.36864 0.09216 0.7168 0.10752 1.08032v2.5088h0.25088c1.75616 12.24704 12.19072 21.69856 24.92416 21.69856h17.14688v-7.86432c0-0.37888 0.07168-0.72704 0.08192-1.1008V239.2064h-0.08192V146.4576h0.27136c1.32096-12.48768 9.15968-22.1184 18.72896-22.1184h218.49088c9.56928 0 17.408 9.63072 18.72896 22.1184h0.18944v2.55488c0.01024 0.37376 0.08192 0.72192 0.08192 1.1008v65.3568c0 0.37888-0.07168 0.72704-0.08192 1.1008v18.48832h0.08192V266.65472h17.14688c12.73344 0 23.168-9.4464 24.92416-21.69856h0.36352V187.6224h-0.10752v-18.13504c0.01024-0.36352 0.1024-0.70656 0.1024-1.0752z" fill="#928B82" /></svg>